<svg xmlns="http://www.w3.org/2000/svg" viewBox="0 0 382.99 382.52"><defs><style>.cls-1{fill:#fe6601;}.cls-2{fill:#4e4e4e;}</style></defs><title>icon-monero</title><g id="レイヤー_2" data-name="レイヤー 2"><g id="レイヤー_1-2" data-name="レイヤー 1"><path class="cls-1" d="M0,169.62c3-6.42,2.94-13.54,4.5-20.3C23.08,68.73,89.85,9.52,172,1c102-10.56,195,62.22,209.12,163.81a196.15,196.15,0,0,1-6,81.69c-1.22,4.28-3,6.15-7.83,6-15.17-.36-30.36-.31-45.54,0-4.63.09-6.07-1-6-5.9.2-48.78.12-97.56.12-146.35V92.55c-2.26,2.06-3.85,3.41-5.32,4.87q-57.34,57.31-114.57,114.73c-3.56,3.58-5.27,3.6-8.84,0Q130.2,154.82,73,97.81c-1.55-1.56-2.61-3.61-4.21-5.88-2.49,3.38-1.74,5.65-1.74,7.69-.06,48.78-.14,97.56.1,146.35,0,5.44-1.39,6.72-6.67,6.59-15.17-.38-30.36-.32-45.54,0-4.33.09-5.91-1.39-7-5.38a269.12,269.12,0,0,1-6.57-30.8c-.17-1.09.24-2.53-1.36-3Z"/><path class="cls-2" d="M355.57,290.88c-40.86,60.81-96.16,92.87-168,91.61C118.93,381.28,66.44,349,27.61,291.24c3.52-.16,5.63-.34,7.74-.34,22.26,0,44.53-.14,66.79.09,4.61,0,6.13-.95,6.09-5.9-.25-31.36-.13-62.73-.13-94.17,2.43-.55,3.15,1.57,4.28,2.68,25.06,24.74,50.18,49.42,75,74.43,4,4,5.79,3.37,9.31-.22,23.94-24.42,48.11-48.63,72.21-72.89,1.52-1.53,3.13-3,4.84-4.61,1.48,2.11.78,4.17.79,6.05.06,29.55.15,59.1-.07,88.65,0,4.77,1.2,6,6,6C304.88,290.74,329.36,290.88,355.57,290.88Z"/></g></g></svg>