<svg xmlns="http://www.w3.org/2000/svg" xmlns:xlink="http://www.w3.org/1999/xlink" viewBox="0 0 291.49 315.93"><defs><style>.cls-1{fill:url(#名称未設定グラデーション_3);}</style><linearGradient id="名称未設定グラデーション_3" x1="82.15" y1="1396.26" x2="301.39" y2="1177.02" gradientTransform="matrix(1, 0, 0, -1, 0, 1444.54)" gradientUnits="userSpaceOnUse"><stop offset="0" stop-color="#11aae2"/><stop offset="1" stop-color="#016197"/></linearGradient></defs><title>icon-ripple</title><g id="レイヤー_2" data-name="レイヤー 2"><g id="レイヤー_1-2" data-name="レイヤー 1"><path class="cls-1" d="M258.56,192.61c-11.11-6.46-23.84-8.28-36.16-8.69-10.5-.4-26.06-7.07-26.06-26.06,0-14.14,11.51-25.65,26.06-26.06,12.52-.4,25-2.22,36.16-8.69A66,66,0,0,0,192.51,8.79a65,65,0,0,0-33.13,57c0,12.73,4.65,24.64,10.3,35.55,4.85,9.09,7.27,26.26-9.49,36-12.52,7.27-28.08,2.63-35.75-9.7-6.46-10.5-14.54-20.4-25.65-26.66a66.46,66.46,0,0,0-66.05,0A65.92,65.92,0,0,0,33.13,215a66.46,66.46,0,0,0,66.05,0c11.11-6.46,19-16.16,25.65-26.66,5.45-8.69,18.79-19.59,35.75-9.9,12.52,7.27,16.36,23,9.29,36-5.86,10.91-10.3,22.62-10.3,35.55a66,66,0,1,0,99-57.37Z"/></g></g></svg>