<svg xmlns="http://www.w3.org/2000/svg" viewBox="0 0 350 350"><title>icon-zcash</title><g id="レイヤー_2" data-name="レイヤー 2"><g id="レイヤー_1-2" data-name="レイヤー 1"><g id="tgmAOB"><g id="_4o0Zdu.tif" data-name="4o0Zdu.tif"><g id="B0wFFZ.tif"><path d="M175,350C78.5,350,0,271.49,0,175S78.5,0,175,0,350,78.5,350,175,271.49,350,175,350Zm0-311.11C99.95,38.89,38.89,99.95,38.89,175S99.95,311.11,175,311.11,311.11,250.05,311.11,175,250,38.89,175,38.89Z"/></g></g></g><path d="M164.5,218.56h75.83v38.11H193.67c.78,10.89,1.17,21,1.94,31.89H156.33v-31.5H109.67c0-12.44-1.56-24.89.78-36.56,1.17-6.22,8.17-11.67,12.44-17.11,14.78-17.5,29.56-34.61,44.72-52.11,5.83-6.61,11.67-12.83,18.28-20.22H113.17V92.94h43.17V61.06h37.72V92.17h47.06c0,12.83,1.56,25.28-.78,36.94-1.17,6.22-8.17,11.67-12.83,17.11-14.78,17.5-29.56,34.61-44.72,52.11C176.94,205.33,171.11,211.56,164.5,218.56Z"/></g></g></svg>