<svg xmlns="http://www.w3.org/2000/svg" viewBox="0 0 382.03 387.12"><defs><style>.cls-1{fill:#1c75bc;}.cls-2{fill:#fff;}</style></defs><title>icon-dash</title><g id="レイヤー_2" data-name="レイヤー 2"><g id="レイヤー_1-2" data-name="レイヤー 1"><path class="cls-1" d="M195.64,387.12h-9.22a6.44,6.44,0,0,0-1.07-.27c-6.07-.48-12.17-.66-18.19-1.49-7-1-14-2.19-20.87-3.81a183.66,183.66,0,0,1-51.2-20.71,190,190,0,0,1-51.26-44.05A195.48,195.48,0,0,1,1.3,216.18c-.68-5.85-1-11.76-1.17-17.65a160.19,160.19,0,0,1,.95-25.27c.81-6.59,1.87-13.17,3.17-19.68A192.35,192.35,0,0,1,73.38,41.26,190.91,190.91,0,0,1,135.76,8.45,183.84,183.84,0,0,1,170.22,1.3c5-.54,10-.69,15-1A7.61,7.61,0,0,0,186.42,0h9.22a5.94,5.94,0,0,0,1.07.27c3.9.25,7.82.3,11.69.76,6.6.79,13.23,1.55,19.75,2.83a186.13,186.13,0,0,1,51.78,18.51,192.75,192.75,0,0,1,84.83,90.94,195.11,195.11,0,0,1,15.17,51.63,191.23,191.23,0,0,1,2,23.9A184.3,184.3,0,0,1,380.76,216c-.76,6-1.76,11.94-3,17.84a192.76,192.76,0,0,1-39.16,82.44,191.88,191.88,0,0,1-92.35,62.33,184.84,184.84,0,0,1-34.45,7.15c-5,.54-10,.69-15,1A7.58,7.58,0,0,0,195.64,387.12ZM105.59,157h158c-.15.55-.24.91-.36,1.27-.75,2.3-1.5,4.6-2.25,6.9Q250,199.09,239.12,233c-.26.8-.62,1.16-1.46,1.05a7.83,7.83,0,0,0-1,0q-77.19,0-154.38,0a1.82,1.82,0,0,0-2.12,1.48c-3.64,11.44-7.36,22.86-11,34.28-.31,1-.58,2-.94,3.15h2q86.41,0,172.82,0a38.54,38.54,0,0,0,12.41-2,62.19,62.19,0,0,0,20.43-11.53c9.14-7.74,16-17,19.67-28.62,7.16-22.78,14.52-45.5,21.9-68.21,2.12-6.51,4-13,3-19.93-.59-4.17-1.48-8.27-3.74-11.87-5.18-8.25-12.87-12.33-22.45-12.35q-87.21-.14-174.43-.08a2,2,0,0,0-2.21,1.66c-3.5,11-7.06,21.91-10.6,32.86C106.5,154.16,106.08,155.5,105.59,157Zm62.83,20.51H76.15c-1.78,0-1.78,0-2.38,1.74q-3.85,11.25-7.7,22.51c-1.22,3.55-2.44,7.11-3.69,10.65-.32.9-.15,1.32.86,1.24.19,0,.38,0,.58,0q45.5,0,91,0a1.92,1.92,0,0,0,2.16-1.61c3.63-11,7.31-21.89,11-32.84C168.14,178.78,168.24,178.26,168.42,177.56Z"/><path class="cls-2" d="M105.59,157c.49-1.55.9-2.89,1.34-4.22,3.54-10.95,7.1-21.89,10.6-32.86a2,2,0,0,1,2.21-1.66q87.21.06,174.43.08c9.57,0,17.27,4.1,22.45,12.35,2.26,3.6,3.15,7.7,3.74,11.87,1,7-.88,13.42-3,19.93-7.38,22.71-14.74,45.43-21.9,68.21-3.65,11.61-10.53,20.88-19.67,28.62a62.19,62.19,0,0,1-20.43,11.53,38.54,38.54,0,0,1-12.41,2q-86.41,0-172.82,0h-2c.36-1.19.63-2.18.94-3.15,3.69-11.42,7.41-22.84,11-34.28A1.82,1.82,0,0,1,82.24,234q77.19,0,154.38,0a7.83,7.83,0,0,1,1,0c.84.11,1.2-.25,1.46-1.05Q250,199.09,261,165.21c.74-2.3,1.5-4.6,2.25-6.9.11-.35.2-.72.36-1.27Z"/><path class="cls-2" d="M168.42,177.56c-.18.7-.28,1.22-.45,1.72-3.66,10.94-7.35,21.88-11,32.84a1.92,1.92,0,0,1-2.16,1.61q-45.5-.06-91,0c-.19,0-.39,0-.58,0-1,.09-1.18-.33-.86-1.24,1.25-3.54,2.47-7.09,3.69-10.65q3.86-11.25,7.7-22.51c.59-1.74.6-1.74,2.38-1.74h92.27Z"/></g></g></svg>