<svg xmlns="http://www.w3.org/2000/svg" viewBox="0 0 470.61 476.01"><defs><style>.cls-1{fill:#85bb65;}.cls-2{fill:#fff;}</style></defs><title>icon_bcc</title><g id="レイヤー_2" data-name="レイヤー 2"><g id="レイヤー_1-2" data-name="レイヤー 1"><g id="coin"><path class="cls-1" d="M463.57,295.58c-31.43,127.5-159.12,205.1-285.21,173.3S-24.4,307.95,7,180.45,166.15-24.67,292.2,7.12,495,168.07,463.57,295.58Z"/></g><path class="cls-2" d="M357.57,324.82,355,330.19c-6.38,13.56-22,23-37.86,23-12.66,0-23.52-4.87-31.41-14.07-8.82-10.29-13.48-25.69-13.48-44.53,0-17.56,4.55-32.36,13.17-42.79A40.22,40.22,0,0,1,317,236.92c15.07,0,29.8,9,35.83,21.91l2.39,5.12,27.5-25.45-1.29-2.73c-10.62-22.54-36.35-36.54-67.13-36.54-51.42,0-86,38.34-86,95.41,0,58.78,33.83,96.76,86.19,96.76,30.54,0,56-13.77,68.18-36.83l1.4-2.66Z"/><path class="cls-2" d="M219,294.62a141.27,141.27,0,0,1,1.26-19.09c-16.17,10.43-46.72,8.44-58.76,8.39V229.06c14.55.08,56.12-3.36,66.69,17a95.14,95.14,0,0,1,16.88-26.73,89.35,89.35,0,0,1,6.67-6.66,73.9,73.9,0,0,0-7.7-2.35c14.31-7.28,23.25-20.2,21.16-41.81h0c-2.81-29.53-28-39.57-59.88-42.56V85l-24.67-.13v39.86c-6.49,0-13.12.06-19.7.16V84.76l-24.66-.13v40.93c-5.34.08-10.59.15-15.7.13v-.13l-34-.2V152s18.22-.25,17.92.09c10,.06,13.25,5.94,14.19,11l0,112.16c-.44,3.17-2.29,8.23-9.27,8.2.32.28-17.94-.1-17.94-.1l-4.91,29.74,32.11.17c6,0,11.86.17,17.63.24v41.41l24.65.14v-41c6.77.18,13.32.27,19.71.3l0,40.78,24.67.13V313.93c5.12-.27,10.06-.66,14.78-1.22A150.47,150.47,0,0,1,219,294.62ZM161.55,154.18c13.93.07,57.68-4.16,57.68,25.2,0,28.15-43.76,24.63-57.69,24.56Z"/></g></g></svg>