<svg xmlns="http://www.w3.org/2000/svg" viewBox="0 0 313.14 313.27"><defs><style>.cls-1{fill:#67b2e8;}.cls-2{fill:#f7a800;}.cls-3{fill:#00c4b3;}</style></defs><title>icon-nem</title><g id="レイヤー_2" data-name="レイヤー 2"><g id="レイヤー_1-2" data-name="レイヤー 1"><path class="cls-1" d="M231.89,232c0-2.54.85-7.62.85-11,1.69-28.77-11-53.32-36.39-68.55,0,0-27.08-13.54-33-49.09C156.57,67,181.11,32.29,216.66,25.52a81.74,81.74,0,0,1,32.16,1.69c9.31,3.39,19.47,6.77,27.93,11,6.77,3.39,12.69,5.92,18.62,10.16,0,0,5.08,2.54,5.08,4.23a239.12,239.12,0,0,1-1.69,24.54c-4.23,45.7-16.08,87.17-41.47,125.25-5.08,8.46-13.54,19.47-19.47,27.08.85,3.39-5.08,2.54-5.92,2.54Z"/><path class="cls-2" d="M11,51.76A313.51,313.51,0,0,1,72.78,23.83c28.77-8.46,60.93-11.85,90.56-11,13.54,0,29.62,3.39,43.16,5.92,0,0-49.09,33.85-54.16,60.09-.85,4.23,3.39,4.23,2.54,8.46,0,6.77-4.23,23.7-5.92,29.62-10.16,35.55-50.78,52.47-85.48,42.32A69.72,69.72,0,0,1,20.31,123.7c-.85-1.69-5.92-27.93-6.77-38.08C11.85,73.76,11,52.61,11,51.76Z"/><path class="cls-3" d="M156.57,299.73c-5.92-2.54-11-6.77-16.08-10.16-16.08-11-31.31-22.85-45.7-37.24A282.07,282.07,0,0,1,58.4,204.94a265.94,265.94,0,0,1-26.5-51.17s2-.46,1.11-1.3l1.69.85a69.19,69.19,0,0,0,16.93,10.16c7.62,3.39,16.08,5.08,23.7,5.92a76.81,76.81,0,0,0,47.39-10.16c7.62-4.23,16.08-7.62,25.39-8.46,32.16-4.23,65.17,13.54,74.48,44.85,5.08,16.08,6.77,34.7-.85,49.09-.85,1.69-7.62,13.54-8.46,14.39-16.08,15.23-29.62,25.39-49.09,36.39l-7.62,4.23Z"/><path d="M156.57,313.27l-1.69-.85A313.7,313.7,0,0,1,10.16,122.85,288,288,0,0,1,2.54,83.92,313.81,313.81,0,0,1,0,44.14c0-2.54,0-1.69,1.69-3.39C51.63,12.83,107.48-1.56,164.18.13c8.46,0,16.93.85,25.39,1.69a308.23,308.23,0,0,1,121,38.93l1.69.85c.85,0,.85.85.85,1.69v2.54a206.22,206.22,0,0,1-.85,22.85c-.85,11-2.54,22-4.23,33-4.23,23.7-11.85,46.55-21.16,67.7A313.48,313.48,0,0,1,160,311.58l-3.39,1.69ZM13.54,51.76v1.69c0,11,.85,22,1.69,33a180.77,180.77,0,0,0,5.08,29.62A12,12,0,0,0,22,121.16a66.55,66.55,0,0,0,88.86,32.16A65.68,65.68,0,0,0,146.41,111,76.84,76.84,0,0,0,149,91.54a65.33,65.33,0,0,1,1.69-12.69A79.41,79.41,0,0,1,198,20.45l4.23-1.69s.85,0,0-.85c-13.54-2.54-27.08-3.39-41.47-4.23A285.66,285.66,0,0,0,13.54,51.76ZM234.43,231.18c.85,0,.85-.85,1.69-1.69C242,221.87,248,214.25,253,205.79A282.75,282.75,0,0,0,297.9,77.15a221.74,221.74,0,0,0,.85-23.7V51.76l-2.54-.85c-5.92-3.39-12.69-6.77-18.62-10.16-9.31-4.23-18.62-8.46-27.93-11-34.7-11-72.78,8.46-83.78,43.16a59.11,59.11,0,0,0-1.69,32.16,67.1,67.1,0,0,0,30.47,44.85l3.39,1.69c24.54,15.23,39.78,42.32,38.08,71.94-.85,2.54-.85,5.08-1.69,7.62ZM156.57,298l1.69-.85a337.06,337.06,0,0,0,52.47-38.93,11.68,11.68,0,0,0,2.54-3.39c.85-1.69,1.69-4.23,3.39-5.92,7.62-15.23,9.31-32.16,4.23-48.24-9.31-31.31-39.78-50.78-71.94-47.39-8.46.85-16.93,4.23-25.39,8.46a78.06,78.06,0,0,1-47.39,10.16A75,75,0,0,1,52.47,166a69.19,69.19,0,0,1-16.93-10.16L33.85,155c0,.85,0,.85.85,1.69a322.79,322.79,0,0,0,24.54,48.24,286.78,286.78,0,0,0,82.09,83.78A66.39,66.39,0,0,0,156.57,298Z"/></g></g></svg>