<svg xmlns="http://www.w3.org/2000/svg" viewBox="0 0 298.52 351.71"><defs><style>.cls-1{fill:#5f2652;fill-rule:evenodd;}</style></defs><title>icon-augur</title><g id="レイヤー_2" data-name="レイヤー 2"><g id="レイヤー_1-2" data-name="レイヤー 1"><path class="cls-1" d="M213.39,180.88a67.81,67.81,0,0,0-19.2-28.59l0,0q-1.58-1.4-3.26-2.7l-.13-.1q-1.63-1.26-3.34-2.43l-.22-.15q-1.68-1.13-3.43-2.17l-.3-.18q-1.73-1-3.52-1.92l-.36-.18q-1.78-.89-3.62-1.68l-.4-.17c-1.07-.45-2.15-.88-3.25-1.28v0a67.26,67.26,0,0,0-9.23-2.63A48.29,48.29,0,0,1,153.57,149a54.42,54.42,0,0,1,24.91,8.37l.42.26c.71.46,1.39,1,2.07,1.44.31.22.63.44.94.67.61.46,1.2.95,1.8,1.43.35.29.71.58,1.06.88.55.47,1.08,1,1.61,1.46.36.34.73.68,1.08,1s1,1,1.46,1.5.72.77,1.06,1.17.89,1,1.32,1.55.69.86,1,1.29.8,1.05,1.19,1.59.65.94,1,1.41.72,1.07,1.06,1.62.6,1,.9,1.54.63,1.08.92,1.64.56,1.14.84,1.71.53,1.06.77,1.61c.31.7.58,1.41.86,2.12A53.51,53.51,0,0,1,203,195h0l1.7,6.46c.71,2.69,7.42,26.47,22.88,34.48,17.73,9.19,41.23,20.7,50.47,25.2l-122,73V284.07c0-7.89,15.72-17.12,23-20.38l.43-.24h0c1.51-.75,3-1.56,4.41-2.42l.6-.33,0,0a68.09,68.09,0,0,0,9-6.5v0c.26-.22.51-.46.77-.69l.86-.77q1.33-1.21,2.59-2.49l.36-.35c.92-1,1.81-1.94,2.67-2.94l.77-.92q1-1.24,2-2.53l.55-.73c.78-1.06,1.52-2.14,2.24-3.25l.23-.34h0c1-1.53,1.91-3.09,2.77-4.7a70.79,70.79,0,0,1-8.74-13.69,53.65,53.65,0,0,1-3.61,8q-.91,1.66-1.93,3.25l-.29.43q-.89,1.35-1.85,2.64l-.56.74q-1,1.25-2,2.45l-.37.44A54.39,54.39,0,0,1,174,251.06l-1.15.6c-3.1,1.38-30.38,13.7-30.38,32.42v50.05L20.09,260.92C28,256,51,242.37,69.89,236.41c7.35-2.31,23.12,7.54,32,14.89l.54.48h0c1.17,1.12,2.4,2.18,3.65,3.21l.45.4,0,0a68,68,0,0,0,9,6.18h0c.7.4,1.41.79,2.13,1.17l.42.22a67.67,67.67,0,0,0,6.32,2.87l.92.36.65.26v0a66.88,66.88,0,0,0,9.5,2.72,47.73,47.73,0,0,1,9.68-12.29A54.06,54.06,0,0,1,130,253.5l-.83-.31c-.54-.21-1.07-.44-1.6-.67l-.81-.35c-.53-.24-1-.49-1.56-.75a54.32,54.32,0,0,1-10.14-6.48l-4.87-4.42a89.61,89.61,0,0,0-14.46-10.32c-12.11-6.88-22.2-9.13-30-6.68-16.18,5.09-34.4,15-45.54,21.49L142.48,25.7v96c0,3.41-5,12.29-21.82,19.84l-1.17.62,0,0c-1.63.8-3.22,1.67-4.77,2.59l-.32.17v0a68.27,68.27,0,0,0-9,6.46h0l-.06.05a68.3,68.3,0,0,0-5.09,4.79l-.16.17a67.92,67.92,0,0,0-4.49,5.23l-.19.24q-1,1.33-2,2.7l-.22.33q-.88,1.28-1.69,2.6l-.18.28q-.83,1.36-1.59,2.75l-.36.67c-.47.88-.93,1.77-1.36,2.68l-.2.42c-.4.85-.78,1.71-1.14,2.57l-.39.94c-.36.9-.71,1.8-1,2.72-.11.32-.21.65-.32,1q-.34,1-.66,2.06c-.11.38-.23.76-.34,1.15q-.37,1.33-.69,2.68c-.1.43-.2.87-.29,1.31q-.2.94-.38,1.9c-.1.56-.2,1.11-.29,1.68q-.18,1.13-.32,2.28-.09.74-.17,1.48c-.07.67-.12,1.35-.17,2s-.08,1.35-.11,2c0,.42,0,.83-.05,1.25h0c0,.51,0,1,0,1.53A67.66,67.66,0,0,0,82.17,213a68.37,68.37,0,0,1,15.18,5.78A53.9,53.9,0,0,1,95,203.82h0c0-.3,0-.61,0-.91,0-1.22.05-2.43.13-3.63,0-.32,0-.63.07-.95.09-1.06.2-2.1.35-3.14,0-.14,0-.29.06-.44.18-1.16.4-2.31.65-3.44.06-.29.13-.58.2-.87q.34-1.43.75-2.83c.06-.21.12-.42.18-.62q.51-1.65,1.12-3.25c.09-.24.19-.49.29-.73q.53-1.34,1.13-2.64l.3-.66q.74-1.55,1.57-3l.29-.5q.74-1.3,1.55-2.55l.39-.6c.65-1,1.32-1.92,2-2.84l.14-.17c.67-.87,1.37-1.72,2.1-2.55l.42-.47A54.49,54.49,0,0,1,120,157.36l5.81-2.84c3.1-1.38,30.24-14.06,30.24-32.78v-96l123.15,221c-11-5.39-30.31-14.9-45.39-22.72-8.63-4.47-14.49-20.25-16-25.94l-1.66-6.62h0a66.74,66.74,0,0,0-2.7-10.48h0v0Zm83.42,69.57L161.12,7A13.59,13.59,0,0,0,137.4,7L1.71,250.45a13.5,13.5,0,0,0,4.88,18.17l135.69,81.16a13.6,13.6,0,0,0,14,0l135.69-81.16a13.5,13.5,0,0,0,4.88-18.17Zm0,0"/></g></g></svg>