<svg xmlns="http://www.w3.org/2000/svg" viewBox="0 0 366 298.26"><defs><style>.cls-1{fill:#02bae9;}.cls-2{fill:#fd8636;}</style></defs><title>icon-factom</title><g id="レイヤー_2" data-name="レイヤー 2"><g id="レイヤー_1-2" data-name="レイヤー 1"><path class="cls-1" d="M0,95.65c1.75-3.83,1-8.1,2.09-12.06.46-1.71.61-3.51.94-5.56C5,79.69,5.41,82,6.15,84c7.06,18.55,21.23,28.21,40,31.55,20.34,3.61,40.08,0,59.29-6.74a165.44,165.44,0,0,0,75.11-53.11c1.94-2.4,1.84-3.51-1.25-4.09-1.36-.26-2.67-.56-1.25-2.46,12-16.09,24-32.21,36.64-49.11.33,6.51.64,12.12.91,17.74.68,14.27,1.3,28.55,2.08,42.81.13,2.47-.92,2.78-2.65,2-2.71-1.28-3.94,0-5.39,2.15-23.3,34.22-55,57.55-93.63,71.79a149.12,149.12,0,0,1-61.32,9.32C41.94,145,29.82,141.86,18.88,135a41.78,41.78,0,0,1-17.6-22.23c-.33-.95-.15-2.19-1.28-2.79Z"/><path class="cls-2" d="M366,140.68c-2.81-.2-5.74-3-8-1.55-2,1.29-2.52,4.68-3.75,7.12-10.17,20.16-24.26,37.56-38.8,54.61A268.16,268.16,0,0,1,228.81,268c-24.72,12.16-50.75,19.73-78.4,21a91.85,91.85,0,0,1-52.57-13.14c-3.72-2.23-7.77-3.91-11.84-7.19,4.21.05,7.24,1.64,10.32,2.55,19.54,5.76,39.29,5.68,59.06,2,43.92-8.15,82.17-28,115.64-57.29,14-12.25,27.58-24.88,38.29-40.29,9.35-13.44,16.89-27.88,24-42.57.9-1.87.3-2.51-1.47-2.95-2.15-.52-4.26-1.23-6.77-2l37.78-50.69c.3,5,.58,9,.78,13.12.56,11.78,1.08,23.55,1.64,35.33,0,.88-.38,2,.73,2.55Z"/><path class="cls-2" d="M1.51,132.45c1.54,1.72,2.73,2.84,3.68,4.14C17.59,153.34,34.7,161.11,55,162.91c23.79,2.1,46.38-3,68.4-11.45A226,226,0,0,0,208.49,94a164.15,164.15,0,0,0,24.75-34.4c1.29-2.38,1-3.41-1.52-3.82-3.12-.5-2.86-1.62-1.19-3.83,11.81-15.68,23.5-31.46,35.75-47.9.33,5,.66,9.11.87,13.27.76,15.34,1.42,30.69,2.28,46,.17,3-.37,4.37-3.5,2.9-2-1-2.86,0-3.75,1.74-29.32,57.29-75.77,94.4-136.12,114.76a167.94,167.94,0,0,1-64.4,8.58,81.7,81.7,0,0,1-36-10.42C11.72,173,4.46,160.82,2.94,145.05,2.56,141.1,1.23,137.26,1.51,132.45Z"/><path class="cls-1" d="M13.33,181.22c2.49.56,3.41,2.11,4.4,3.29C28.92,197.92,44,203.84,60.6,206.45c25.34,4,49.92-.32,73.79-8.42C182,181.89,221,153.3,252.77,114.58c2-2.42,1.82-3.43-1.24-3.92-3.4-.54-3.49-1.75-1.43-4.47,11.16-14.69,22.11-29.54,33.15-44.33.61-.81,1-1.87,2.45-2.23.48,9.09,1,18.07,1.44,27.06.53,10.47,1,20.94,1.58,31.4.16,2.68-.15,4.23-3.29,2.88-1.35-.58-2.1-.06-2.87,1.16-12.12,19.25-28.06,35.13-45.13,49.83-26.12,22.5-55.27,40.09-88,51.26-23,7.86-46.66,12.55-71.2,10.38A93.88,93.88,0,0,1,44.08,224C32.45,218.22,26,208.22,20.61,197.17A160.6,160.6,0,0,1,13.33,181.22Z"/><path class="cls-1" d="M42.5,230.53A11,11,0,0,1,48,232.89C61.5,242,76.6,245.54,92.55,246.41c27.45,1.49,53.45-4.73,78.58-15.09,44.62-18.4,81.81-46.79,112.26-84.13,2.59-3.17,2.62-3.35-1.33-4.35-2.79-.7-3.16-1.4-1.33-3.83,11.47-15.2,22.79-30.52,34.17-45.8.34-.46.75-.87,1.64-1.88.45,7.68.91,14.72,1.27,21.76.63,12.61,1.12,25.22,1.84,37.82.17,3-.77,3.76-3.25,2.37-3.53-2-5.25,0-7.17,2.61a291,291,0,0,1-86,78.86c-27.87,16.68-57.71,28.21-90.14,32-18.36,2.15-36.63,1.52-54.2-5.31a49,49,0,0,1-15.13-9.25A246.92,246.92,0,0,1,42.5,230.53Z"/><path class="cls-1" d="M317.92,208.52c-.51,8.42-.94,15.78-1.4,23.13,0,.64,0,1.92-.88,1.51-2.83-1.32-3.56,1.23-4.81,2.48-27.07,26.9-58.27,47-95.11,57.78a121.52,121.52,0,0,1-52.33,3.47,184.38,184.38,0,0,1-22.72-4.36c.49-1.06,1.33-.79,1.93-.72,30.6,3.57,59.43-3,87.2-15.35a246.87,246.87,0,0,0,69.46-46.37c.78-.73,1.5-1.53,2.21-2.34.36-.41,1.14-1.11.5-1.43-4.53-2.25,0-3.27.78-4.05C307.43,217.77,312.36,213.51,317.92,208.52Z"/></g></g></svg>